<?xml version="1.0" encoding="UTF-8"?>
<svg id="Layer_1" xmlns="http://www.w3.org/2000/svg" version="1.1" viewBox="0 0 565.08 153.52">
  <!-- Generator: Adobe Illustrator 29.5.1, SVG Export Plug-In . SVG Version: 2.1.0 Build 141)  -->
  <defs>
    <style>
      .st0 {
        fill: #2563eb;
      }

      .st1 {
        font-family: Inter24pt-SemiBold, 'Inter 24pt';
        font-size: 90.03px;
        font-weight: 600;
        letter-spacing: -.04em;
      }
    </style>
  </defs>
  <text class="st1" transform="translate(366.96 515.4)"><tspan x="0" y="0">Simulatrix</tspan></text>
  <g>
    <path d="M46.21,118.66c-6.49,0-12.08-1.05-16.77-3.14-4.69-2.09-8.31-5.11-10.87-9.06-2.56-3.95-3.89-8.7-4-14.25h14.12c.11,3.07.9,5.65,2.38,7.76,1.48,2.11,3.52,3.71,6.11,4.81,2.6,1.1,5.61,1.65,9.03,1.65s6.15-.48,8.6-1.43c2.45-.95,4.37-2.31,5.76-4.06,1.39-1.75,2.08-3.8,2.08-6.14,0-1.98-.55-3.67-1.65-5.06-1.1-1.39-2.74-2.59-4.92-3.6-2.18-1.01-4.91-1.89-8.2-2.65l-8.87-2.16c-7.46-1.77-13.1-4.44-16.9-8.01-3.81-3.57-5.71-8.2-5.71-13.9,0-4.76,1.25-8.93,3.76-12.52,2.51-3.59,5.99-6.37,10.44-8.36,4.45-1.98,9.58-2.98,15.39-2.98s10.99,1.01,15.34,3.03c4.35,2.02,7.74,4.88,10.17,8.57,2.43,3.7,3.72,8.01,3.87,12.96h-13.79c-.29-3.9-1.84-6.93-4.65-9.11-2.81-2.18-6.51-3.27-11.09-3.27-2.99,0-5.62.47-7.87,1.41-2.25.94-4,2.23-5.25,3.87-1.24,1.64-1.87,3.53-1.87,5.65s.59,3.71,1.76,5.08c1.17,1.37,2.82,2.52,4.95,3.46,2.13.94,4.65,1.75,7.57,2.43l7.9,1.89c3.64.83,6.93,1.89,9.87,3.19s5.46,2.87,7.57,4.71,3.72,3.99,4.84,6.44c1.12,2.45,1.68,5.28,1.68,8.49,0,4.87-1.24,9.12-3.71,12.77-2.47,3.64-6,6.47-10.6,8.49s-10.09,3.03-16.47,3.03Z"/>
    <path d="M92,51.54c-2.38,0-4.38-.77-5.99-2.31-1.62-1.54-2.43-3.43-2.43-5.66s.81-4.16,2.43-5.69c1.62-1.52,3.61-2.29,5.99-2.29s4.38.76,5.99,2.29c1.62,1.52,2.43,3.42,2.43,5.69s-.82,4.12-2.45,5.66c-1.64,1.54-3.62,2.31-5.96,2.31ZM84.87,118.66v-60.43h14.27v60.43h-14.27Z"/>
    <path d="M108.29,118.66v-60.43h13.66l.22,13.83h-1.06c1-3.38,2.44-6.17,4.32-8.36,1.88-2.19,4.06-3.83,6.55-4.91,2.49-1.08,5.11-1.62,7.86-1.62,4.5,0,8.27,1.35,11.32,4.04,3.05,2.69,5.04,6.42,5.97,11.18h-1.78c.82-3.23,2.2-5.98,4.15-8.25,1.95-2.27,4.31-4,7.08-5.19,2.77-1.19,5.77-1.78,9-1.78,3.75,0,7.12.81,10.09,2.43,2.97,1.62,5.33,4,7.08,7.14,1.75,3.14,2.62,7.03,2.62,11.68v40.25h-14.27v-38.19c0-3.87-1.07-6.7-3.21-8.5-2.14-1.8-4.69-2.7-7.67-2.7-2.34,0-4.37.51-6.08,1.53-1.71,1.02-3.04,2.42-3.99,4.21s-1.42,3.85-1.42,6.19v37.46h-13.88v-38.8c0-3.2-.99-5.76-2.95-7.69-1.97-1.93-4.52-2.9-7.64-2.9-2.12,0-4.07.49-5.85,1.48-1.78.99-3.21,2.43-4.27,4.35-1.06,1.91-1.59,4.27-1.59,7.05v36.52h-14.27Z"/>
    <path d="M225.79,118.66c-4.09,0-7.71-.89-10.86-2.66s-5.59-4.37-7.35-7.79c-1.75-3.42-2.63-7.6-2.63-12.53v-37.46h14.04v35.26c0,4.17,1.05,7.39,3.15,9.65,2.1,2.27,5,3.4,8.69,3.4,2.49,0,4.69-.52,6.61-1.56,1.92-1.04,3.44-2.61,4.55-4.72,1.11-2.1,1.67-4.72,1.67-7.87v-34.16h14.04v59.45h-13.55l-.11-14.92h2.03c-1.83,5.23-4.42,9.19-7.79,11.87-3.36,2.69-7.53,4.03-12.5,4.03Z"/>
    <path d="M281.62,35.59v83.07h-14.27V35.59h14.27Z"/>
    <path d="M308.65,118.66c-3.87,0-7.33-.68-10.38-2.03-3.05-1.35-5.46-3.35-7.23-6-1.77-2.65-2.66-5.92-2.66-9.83,0-3.36.63-6.13,1.89-8.32,1.26-2.19,2.97-3.94,5.15-5.26,2.17-1.31,4.64-2.31,7.39-2.98,2.76-.68,5.61-1.18,8.57-1.51,3.58-.4,6.44-.75,8.6-1.04,2.15-.29,3.71-.76,4.68-1.4.97-.64,1.45-1.63,1.45-2.98v-.33c0-1.83-.42-3.4-1.26-4.74-.84-1.33-2.04-2.36-3.61-3.09-1.57-.73-3.49-1.1-5.75-1.1s-4.31.37-6.02,1.1c-1.72.73-3.09,1.71-4.13,2.93s-1.71,2.58-2,4.08l-13.25-1.2c.66-3.72,2.13-6.91,4.41-9.56,2.28-2.65,5.22-4.67,8.82-6.08,3.59-1.4,7.69-2.11,12.29-2.11,3.4,0,6.56.41,9.5,1.23,2.94.82,5.53,2.05,7.78,3.7,2.25,1.64,4,3.73,5.26,6.27,1.26,2.54,1.89,5.56,1.89,9.06v40.08h-13.58v-8.27h-.38c-.91,1.72-2.13,3.29-3.64,4.71-1.52,1.42-3.4,2.56-5.67,3.39-2.26.84-4.96,1.26-8.1,1.26ZM312.16,108.25c2.96,0,5.48-.56,7.58-1.67,2.1-1.11,3.7-2.61,4.79-4.49,1.1-1.88,1.64-3.93,1.64-6.16v-6.74c-.44.33-1.13.64-2.08.93-.95.29-2.05.56-3.31.79-1.26.24-2.56.46-3.89.66-1.33.2-2.6.39-3.81.57-2.04.26-3.91.71-5.59,1.37-1.68.66-3.01,1.56-4,2.71-.99,1.15-1.48,2.62-1.48,4.41,0,1.64.42,3.03,1.26,4.16.84,1.13,2.03,1.99,3.56,2.57s3.3.88,5.31.88Z"/>
    <path d="M379.66,58.15v11.31h-35.78v-11.31h35.78ZM353.48,42.73h14.2v58.46c0,2.15.45,3.68,1.36,4.6.91.92,2.47,1.39,4.69,1.39.81,0,1.78-.04,2.91-.11,1.13-.07,2.04-.15,2.75-.22l1.05,11.2c-1.26.22-2.69.38-4.3.47-1.61.09-3.17.14-4.69.14-5.99,0-10.48-1.33-13.48-3.99-3-2.66-4.49-6.6-4.49-11.81v-60.13Z"/>
    <path d="M385.16,118.66v-60.43h13.77v10.09h.45c1.08-3.49,2.88-6.16,5.41-8,2.53-1.84,5.65-2.76,9.37-2.76.85,0,1.73.03,2.62.08.89.06,1.63.14,2.23.25v12.82c-.52-.11-1.43-.23-2.73-.36-1.3-.13-2.62-.2-3.96-.2-2.42,0-4.6.54-6.55,1.62-1.95,1.08-3.49,2.63-4.63,4.66-1.13,2.03-1.7,4.49-1.7,7.39v34.84h-14.27Z"/>
    <path d="M430.98,51.53c-2.38,0-4.38-.77-5.99-2.31-1.62-1.54-2.43-3.43-2.43-5.66s.81-4.16,2.43-5.69c1.62-1.52,3.61-2.29,5.99-2.29s4.38.76,5.99,2.29c1.62,1.52,2.43,3.42,2.43,5.69s-.82,4.12-2.45,5.66c-1.64,1.54-3.62,2.31-5.96,2.31ZM423.86,118.66v-60.43h14.27v60.43h-14.27Z"/>
    <g>
      <g>
        <path class="st0" d="M544.94,128.07c-1.49,0-2.89-.58-3.95-1.63l-27.44-27.44c-1.05-1.05-1.63-2.45-1.63-3.95s.58-2.89,1.63-3.95,2.46-1.63,3.95-1.63,2.89.58,3.95,1.63l27.44,27.44c2.18,2.18,2.18,5.72,0,7.89-1.05,1.05-2.45,1.63-3.95,1.63ZM453.48,128.07c-1.49,0-2.89-.58-3.95-1.63-2.18-2.18-2.18-5.72,0-7.89l27.44-27.44c1.05-1.05,2.46-1.63,3.95-1.63s2.89.58,3.95,1.63,1.63,2.45,1.63,3.95-.58,2.89-1.63,3.95l-27.44,27.44c-1.05,1.05-2.45,1.63-3.95,1.63ZM499.21,90.96c-3.79,0-7.36-1.48-10.04-4.16s-4.16-6.25-4.16-10.04,1.48-7.36,4.16-10.04c2.68-2.68,6.25-4.16,10.04-4.16s7.36,1.48,10.04,4.16c5.53,5.54,5.53,14.55,0,20.08-2.68,2.68-6.25,4.16-10.04,4.16ZM499.21,73.72c-.81,0-1.58.32-2.15.89-1.19,1.19-1.19,3.12,0,4.3.57.57,1.34.89,2.15.89s1.58-.32,2.15-.89c1.19-1.19,1.19-3.12,0-4.3-.57-.57-1.34-.89-2.15-.89ZM517.5,64.05c-1.49,0-2.89-.58-3.95-1.63-2.18-2.18-2.18-5.71,0-7.89l27.44-27.44c1.05-1.05,2.45-1.63,3.95-1.63s2.89.58,3.95,1.63c2.18,2.18,2.18,5.72,0,7.89l-27.44,27.44c-1.05,1.05-2.46,1.63-3.95,1.63ZM480.92,64.05c-1.49,0-2.89-.58-3.95-1.63l-27.44-27.44c-2.18-2.18-2.18-5.72,0-7.89,1.05-1.05,2.45-1.63,3.95-1.63s2.89.58,3.95,1.63l27.44,27.44c2.18,2.18,2.18,5.72,0,7.89-1.05,1.05-2.46,1.63-3.95,1.63Z"/>
        <path class="st0" d="M508.35,67.62c-5.05-5.05-13.24-5.05-18.29,0-5.05,5.05-5.05,13.24,0,18.29,5.05,5.05,13.24,5.05,18.29,0,5.04-5.05,5.04-13.24,0-18.29ZM496.16,79.81c-1.68-1.68-1.68-4.41,0-6.1s4.41-1.68,6.1,0,1.68,4.41,0,6.1-4.41,1.68-6.1,0ZM483.96,55.42l-27.44-27.44c-1.68-1.68-4.41-1.68-6.1,0s-1.68,4.41,0,6.1l27.44,27.44c1.68,1.68,4.41,1.68,6.1,0s1.68-4.41,0-6.1ZM547.98,119.44l-27.44-27.44c-1.68-1.68-4.41-1.68-6.1,0s-1.68,4.41,0,6.1l27.44,27.44c1.68,1.68,4.41,1.68,6.1,0s1.68-4.41,0-6.1ZM483.96,92.01c-1.68-1.68-4.41-1.68-6.1,0l-27.44,27.44c-1.68,1.68-1.68,4.41,0,6.1s4.41,1.68,6.1,0l27.44-27.44c1.68-1.68,1.68-4.41,0-6.1ZM514.45,61.52c1.68,1.68,4.41,1.68,6.1,0l27.44-27.44c1.68-1.68,1.68-4.41,0-6.1s-4.41-1.68-6.1,0l-27.44,27.44c-1.68,1.68-1.68,4.41,0,6.1Z"/>
      </g>
      <circle class="st0" cx="499.21" cy="76.76" r="5.33"/>
    </g>
  </g>
  <g>
    <path class="st0" d="M46.21,303.56c-6.49,0-12.08-1.05-16.77-3.14-4.69-2.09-8.31-5.11-10.87-9.06-2.56-3.95-3.89-8.7-4-14.25h14.12c.11,3.07.9,5.65,2.38,7.76,1.48,2.11,3.52,3.71,6.11,4.81,2.6,1.1,5.61,1.65,9.03,1.65s6.15-.48,8.6-1.43c2.45-.95,4.37-2.31,5.76-4.06,1.39-1.75,2.08-3.8,2.08-6.14,0-1.98-.55-3.67-1.65-5.06-1.1-1.39-2.74-2.59-4.92-3.6-2.18-1.01-4.91-1.89-8.2-2.65l-8.87-2.16c-7.46-1.77-13.1-4.44-16.9-8.01-3.81-3.57-5.71-8.2-5.71-13.9,0-4.76,1.25-8.93,3.76-12.52,2.51-3.59,5.99-6.37,10.44-8.36,4.45-1.98,9.58-2.98,15.39-2.98s10.99,1.01,15.34,3.03c4.35,2.02,7.74,4.88,10.17,8.57,2.43,3.7,3.72,8.01,3.87,12.96h-13.79c-.29-3.9-1.84-6.93-4.65-9.11-2.81-2.18-6.51-3.27-11.09-3.27-2.99,0-5.62.47-7.87,1.41-2.25.94-4,2.23-5.25,3.87-1.24,1.64-1.87,3.53-1.87,5.65s.59,3.71,1.76,5.08c1.17,1.37,2.82,2.52,4.95,3.46,2.13.94,4.65,1.75,7.57,2.43l7.9,1.89c3.64.83,6.93,1.89,9.87,3.19s5.46,2.87,7.57,4.71,3.72,3.99,4.84,6.44c1.12,2.45,1.68,5.28,1.68,8.49,0,4.87-1.24,9.12-3.71,12.77-2.47,3.64-6,6.47-10.6,8.49s-10.09,3.03-16.47,3.03Z"/>
    <path class="st0" d="M92,236.44c-2.38,0-4.38-.77-5.99-2.31-1.62-1.54-2.43-3.43-2.43-5.66s.81-4.16,2.43-5.69c1.62-1.52,3.61-2.29,5.99-2.29s4.38.76,5.99,2.29c1.62,1.52,2.43,3.42,2.43,5.69s-.82,4.12-2.45,5.66c-1.64,1.54-3.62,2.31-5.96,2.31ZM84.87,303.56v-60.43h14.27v60.43h-14.27Z"/>
    <path class="st0" d="M108.29,303.56v-60.43h13.66l.22,13.83h-1.06c1-3.38,2.44-6.17,4.32-8.36,1.88-2.19,4.06-3.83,6.55-4.91,2.49-1.08,5.11-1.62,7.86-1.62,4.5,0,8.27,1.35,11.32,4.04,3.05,2.69,5.04,6.42,5.97,11.18h-1.78c.82-3.23,2.2-5.98,4.15-8.25,1.95-2.27,4.31-4,7.08-5.19,2.77-1.19,5.77-1.78,9-1.78,3.75,0,7.12.81,10.09,2.43,2.97,1.62,5.33,4,7.08,7.14,1.75,3.14,2.62,7.03,2.62,11.68v40.25h-14.27v-38.19c0-3.87-1.07-6.7-3.21-8.5-2.14-1.8-4.69-2.7-7.67-2.7-2.34,0-4.37.51-6.08,1.53-1.71,1.02-3.04,2.42-3.99,4.21s-1.42,3.85-1.42,6.19v37.46h-13.88v-38.8c0-3.2-.99-5.76-2.95-7.69-1.97-1.93-4.52-2.9-7.64-2.9-2.12,0-4.07.49-5.85,1.48-1.78.99-3.21,2.43-4.27,4.35-1.06,1.91-1.59,4.27-1.59,7.05v36.52h-14.27Z"/>
    <path class="st0" d="M225.79,303.56c-4.09,0-7.71-.89-10.86-2.66s-5.59-4.37-7.35-7.79c-1.75-3.42-2.63-7.6-2.63-12.53v-37.46h14.04v35.26c0,4.17,1.05,7.39,3.15,9.65,2.1,2.27,5,3.4,8.69,3.4,2.49,0,4.69-.52,6.61-1.56,1.92-1.04,3.44-2.61,4.55-4.72,1.11-2.1,1.67-4.72,1.67-7.87v-34.16h14.04v59.45h-13.55l-.11-14.92h2.03c-1.83,5.23-4.42,9.19-7.79,11.87-3.36,2.69-7.53,4.03-12.5,4.03Z"/>
    <path class="st0" d="M281.62,220.49v83.07h-14.27v-83.07h14.27Z"/>
    <path class="st0" d="M308.65,303.56c-3.87,0-7.33-.68-10.38-2.03-3.05-1.35-5.46-3.35-7.23-6-1.77-2.65-2.66-5.92-2.66-9.83,0-3.36.63-6.13,1.89-8.32,1.26-2.19,2.97-3.94,5.15-5.26,2.17-1.31,4.64-2.31,7.39-2.98,2.76-.68,5.61-1.18,8.57-1.51,3.58-.4,6.44-.75,8.6-1.04,2.15-.29,3.71-.76,4.68-1.4.97-.64,1.45-1.63,1.45-2.98v-.33c0-1.83-.42-3.4-1.26-4.74-.84-1.33-2.04-2.36-3.61-3.09-1.57-.73-3.49-1.1-5.75-1.1s-4.31.37-6.02,1.1c-1.72.73-3.09,1.71-4.13,2.93s-1.71,2.58-2,4.08l-13.25-1.2c.66-3.72,2.13-6.91,4.41-9.56,2.28-2.65,5.22-4.67,8.82-6.08,3.59-1.4,7.69-2.11,12.29-2.11,3.4,0,6.56.41,9.5,1.23,2.94.82,5.53,2.05,7.78,3.7,2.25,1.64,4,3.73,5.26,6.27,1.26,2.54,1.89,5.56,1.89,9.06v40.08h-13.58v-8.27h-.38c-.91,1.72-2.13,3.29-3.64,4.71-1.52,1.42-3.4,2.56-5.67,3.39-2.26.84-4.96,1.26-8.1,1.26ZM312.16,293.16c2.96,0,5.48-.56,7.58-1.67,2.1-1.11,3.7-2.61,4.79-4.49,1.1-1.88,1.64-3.93,1.64-6.16v-6.74c-.44.33-1.13.64-2.08.93-.95.29-2.05.56-3.31.79-1.26.24-2.56.46-3.89.66-1.33.2-2.6.39-3.81.57-2.04.26-3.91.71-5.59,1.37-1.68.66-3.01,1.56-4,2.71-.99,1.15-1.48,2.62-1.48,4.41,0,1.64.42,3.03,1.26,4.16.84,1.13,2.03,1.99,3.56,2.57s3.3.88,5.31.88Z"/>
    <path class="st0" d="M379.66,243.05v11.31h-35.78v-11.31h35.78ZM353.48,227.63h14.2v58.46c0,2.15.45,3.68,1.36,4.6.91.92,2.47,1.39,4.69,1.39.81,0,1.78-.04,2.91-.11,1.13-.07,2.04-.15,2.75-.22l1.05,11.2c-1.26.22-2.69.38-4.3.47-1.61.09-3.17.14-4.69.14-5.99,0-10.48-1.33-13.48-3.99-3-2.66-4.49-6.6-4.49-11.81v-60.13Z"/>
    <path class="st0" d="M385.16,303.56v-60.43h13.77v10.09h.45c1.08-3.49,2.88-6.16,5.41-8,2.53-1.84,5.65-2.76,9.37-2.76.85,0,1.73.03,2.62.08.89.06,1.63.14,2.23.25v12.82c-.52-.11-1.43-.23-2.73-.36-1.3-.13-2.62-.2-3.96-.2-2.42,0-4.6.54-6.55,1.62-1.95,1.08-3.49,2.63-4.63,4.66-1.13,2.03-1.7,4.49-1.7,7.39v34.84h-14.27Z"/>
    <path class="st0" d="M430.98,236.44c-2.38,0-4.38-.77-5.99-2.31-1.62-1.54-2.43-3.43-2.43-5.66s.81-4.16,2.43-5.69c1.62-1.52,3.61-2.29,5.99-2.29s4.38.76,5.99,2.29c1.62,1.52,2.43,3.42,2.43,5.69s-.82,4.12-2.45,5.66c-1.64,1.54-3.62,2.31-5.96,2.31ZM423.86,303.56v-60.43h14.27v60.43h-14.27Z"/>
    <g>
      <g>
        <path class="st0" d="M544.94,312.97c-1.49,0-2.89-.58-3.95-1.63l-27.44-27.44c-1.05-1.05-1.63-2.45-1.63-3.95s.58-2.89,1.63-3.95,2.46-1.63,3.95-1.63,2.89.58,3.95,1.63l27.44,27.44c2.18,2.18,2.18,5.72,0,7.89-1.05,1.05-2.45,1.63-3.95,1.63ZM453.48,312.97c-1.49,0-2.89-.58-3.95-1.63-2.18-2.18-2.18-5.72,0-7.89l27.44-27.44c1.05-1.05,2.46-1.63,3.95-1.63s2.89.58,3.95,1.63,1.63,2.45,1.63,3.95-.58,2.89-1.63,3.95l-27.44,27.44c-1.05,1.05-2.45,1.63-3.95,1.63ZM499.21,275.87c-3.79,0-7.36-1.48-10.04-4.16s-4.16-6.25-4.16-10.04,1.48-7.36,4.16-10.04c2.68-2.68,6.25-4.16,10.04-4.16s7.36,1.48,10.04,4.16c5.53,5.54,5.53,14.55,0,20.08-2.68,2.68-6.25,4.16-10.04,4.16ZM499.21,258.62c-.81,0-1.58.32-2.15.89-1.19,1.19-1.19,3.12,0,4.3.57.57,1.34.89,2.15.89s1.58-.32,2.15-.89c1.19-1.19,1.19-3.12,0-4.3-.57-.57-1.34-.89-2.15-.89ZM517.5,248.95c-1.49,0-2.89-.58-3.95-1.63-2.18-2.18-2.18-5.71,0-7.89l27.44-27.44c1.05-1.05,2.45-1.63,3.95-1.63s2.89.58,3.95,1.63c2.18,2.18,2.18,5.72,0,7.89l-27.44,27.44c-1.05,1.05-2.46,1.63-3.95,1.63ZM480.92,248.95c-1.49,0-2.89-.58-3.95-1.63l-27.44-27.44c-2.18-2.18-2.18-5.72,0-7.89,1.05-1.05,2.45-1.63,3.95-1.63s2.89.58,3.95,1.63l27.44,27.44c2.18,2.18,2.18,5.72,0,7.89-1.05,1.05-2.46,1.63-3.95,1.63Z"/>
        <path class="st0" d="M508.35,252.52c-5.05-5.05-13.24-5.05-18.29,0-5.05,5.05-5.05,13.24,0,18.29,5.05,5.05,13.24,5.05,18.29,0,5.04-5.05,5.04-13.24,0-18.29ZM496.16,264.71c-1.68-1.68-1.68-4.41,0-6.1s4.41-1.68,6.1,0,1.68,4.41,0,6.1-4.41,1.68-6.1,0ZM483.96,240.32l-27.44-27.44c-1.68-1.68-4.41-1.68-6.1,0s-1.68,4.41,0,6.1l27.44,27.44c1.68,1.68,4.41,1.68,6.1,0s1.68-4.41,0-6.1ZM547.98,304.34l-27.44-27.44c-1.68-1.68-4.41-1.68-6.1,0s-1.68,4.41,0,6.1l27.44,27.44c1.68,1.68,4.41,1.68,6.1,0s1.68-4.41,0-6.1ZM483.96,276.91c-1.68-1.68-4.41-1.68-6.1,0l-27.44,27.44c-1.68,1.68-1.68,4.41,0,6.1s4.41,1.68,6.1,0l27.44-27.44c1.68-1.68,1.68-4.41,0-6.1ZM514.45,246.42c1.68,1.68,4.41,1.68,6.1,0l27.44-27.44c1.68-1.68,1.68-4.41,0-6.1s-4.41-1.68-6.1,0l-27.44,27.44c-1.68,1.68-1.68,4.41,0,6.1Z"/>
      </g>
      <circle class="st0" cx="499.21" cy="261.66" r="5.33"/>
    </g>
  </g>
</svg>